# xmcd
# 
# Track frame offsets:
#     150
#     15190
#     30735
#     46395
#     64282
#     78895
#     93347
#     107597
#     124777
#     144177
#     162975
#     181760
#     197152
#     215067
#     228467
#     246822
#     263175
#     281400
#     297715
#     320250
# 
# Disc length: 4506
# 
# Revision: 1
# Processed by: cddbd v1.5.2PL0 Copyright (c) Steve Scherf et al.
# Submitted via: fre:ac v1.0.27
# 
DISCID=19119814
DTITLE=森 昌子 - 森 昌子 ベスト
DYEAR=2002
DGENRE=演歌
TTITLE0=せんせい
TTITLE1=同級生
TTITLE2=中学三年生
TTITLE3=夕顔の雨
TTITLE4=記念樹
TTITLE5=おかあさん
TTITLE6=あなたを待って三年三月
TTITLE7=あの人の船行っちゃった
TTITLE8=なみだの桟橋
TTITLE9=父娘草
TTITLE10=彼岸花
TTITLE11=ためいき橋
TTITLE12=波止場通り なみだ町
TTITLE13=北寒港
TTITLE14=哀しみ本線 日本海
TTITLE15=立待岬
TTITLE16=越冬つばめ
TTITLE17=涙雪
TTITLE18=愛傷歌
TTITLE19=ありがとう ~雛ものがたり~
EXTD=
EXTT0=
EXTT1=
EXTT2=
EXTT3=
EXTT4=
EXTT5=
EXTT6=
EXTT7=
EXTT8=
EXTT9=
EXTT10=
EXTT11=
EXTT12=
EXTT13=
EXTT14=
EXTT15=
EXTT16=
EXTT17=
EXTT18=
EXTT19=
PLAYORDER=
